#!OML:ASF X:\für Bonn\!DataBase\2005_08_12_Daniel\c3d\Daniel.ASF
:FULLY-SPECIFIED
:DEGREES
470
root 15.9428 1.3443 1.10999 -762.046 -85.3909 -432.67
lowerback 23.1448 -2.819 1.42277
upperback 7.90343 -4.01686 -0.794745
thorax -4.35854 -2.26013 -0.58738
lowerneck -6.66012 2.03632 -6.25093
upperneck -0.802531 3.07182 1.35036
head 0.755583 1.52615 1.56147
rclavicle 2.06736e-014 5.33985e-014
rhumerus -44.406 -18.5999 -65.0516
rradius 11.1945
rwrist 72.897
rhand -6.06607 -345.217
rfingers 7.12502
rthumb 19.7688 -374.232
lclavicle 2.06736e-014 5.33985e-014
lhumerus -767.617 25.582 -660.235
lradius 15.5049
lwrist -71.9831
lhand -5.73149 353.322
lfingers 7.12502
lthumb 20.0905 382.303
rfemur 390.134 20.1995 388.464
rtibia 11.8064
rfoot -22.1427 -35.4944
rtoes 30.3728
lfemur 16.5823 -24.1164 -23.6259
ltibia 31.8641
lfoot -6.12068 26.8955
ltoes 12.027
471
root 15.9437 1.34346 1.11073 -762.126 -85.399 -432.541
lowerback 23.0956 -2.81969 1.43964
upperback 7.90428 -4.01405 -0.800058
thorax -4.33437 -2.25805 -0.606013
lowerneck -6.73527 2.02342 -6.2696
upperneck -0.769813 3.06114 1.36651
head 0.778901 1.52056 1.57164
rclavicle -3.97569e-014 1.1127e-013
rhumerus -44.4343 -18.8594 -64.8509
rradius 11.1641
rwrist 73.175
rhand -6.0682 -345.212
rfingers 7.12502
rthumb 19.7668 -374.227
lclavicle -3.97569e-014 1.1127e-013
lhumerus -767.546 25.4539 -660.097
lradius 15.5243
lwrist -71.9394
lhand -5.76468 353.368
lfingers 7.12502
lthumb 20.0586 382.352
rfemur 390.067 20.1595 388.391
rtibia 11.7894
rfoot -22.0566 -35.5037
rtoes 30.3941
lfemur 16.5278 -24.107 -23.6081
ltibia 31.8578
lfoot -6.15543 26.9952
ltoes 11.825
472
root 15.9453 1.34288 1.11078 -762.213 -85.3959 -432.404
lowerback 23.0519 -2.82405 1.45636
upperback 7.89799 -4.01618 -0.816745
thorax -4.32171 -2.25808 -0.634872
lowerneck -6.78623 2.01813 -6.29333
upperneck -0.762014 3.05876 1.39635
head 0.789627 1.5197 1.5865
rclavicle -7.95139e-016 -1.43895e-013
rhumerus -44.464 -19.1079 -64.6861
rradius 11.1261
rwrist 73.4485
rhand -6.10335 -345.209
rfingers 7.12502
rthumb 19.733 -374.228
lclavicle -7.95139e-016 -1.43895e-013
lhumerus -767.443 25.1847 -659.864
lradius 15.5583
lwrist -71.6565
lhand -5.7571 353.5
lfingers 7.12502
lthumb 20.0658 382.483
rfemur 389.981 20.0732 388.278
rtibia 11.7759
rfoot -21.8589 -35.5268
rtoes 30.4015
lfemur 16.4609 -24.085 -23.573
ltibia 31.8483
lfoot -6.18859 27.0599
ltoes 11.6211
473
root 15.9464 1.34218 1.111 -762.13 -85.4103 -432.457
lowerback 23.0292 -2.82403 1.47053
upperback 7.89746 -4.01232 -0.804597
thorax -4.31078 -2.25597 -0.632071
lowerneck -6.8642 2.00712 -6.3391
upperneck -0.730778 3.05253 1.42195
head 0.812405 1.51647 1.60466
rclavicle -7.55382e-014 8.07314e-014
rhumerus -44.4558 -19.1985 -64.5932
rradius 11.1145
rwrist 73.5705
rhand -6.10445 -345.195
rfingers 7.12502
rthumb 19.7319 -374.213
lclavicle -7.55382e-014 8.07314e-014
lhumerus -767.393 25.0867 -659.737
lradius 15.5755
lwrist -71.6296
lhand -5.74602 353.537
lfingers 7.12502
lthumb 20.0765 382.519
rfemur 389.95 20.0736 388.265
rtibia 11.7458
rfoot -21.8258 -35.5943
rtoes 30.4456
lfemur 16.4277 -24.0874 -23.5441
ltibia 31.8453
lfoot -6.24123 27.1362
ltoes 11.4782
474
root 15.9479 1.34075 1.11113 -762.042 -85.3926 -432.489
lowerback 22.9904 -2.83402 1.4809
upperback 7.88031 -4.02216 -0.808277
thorax -4.31125 -2.25981 -0.640679
lowerneck -6.90138 1.99763 -6.3437
upperneck -0.708992 3.04306 1.42282
head 0.826063 1.51144 1.60657
rclavicle 4.92986e-014 -9.36027e-014
rhumerus -44.4472 -19.1342 -64.6482
rradius 11.1311
rwrist 73.4592
rhand -6.08876 -345.235
rfingers 7.12502
rthumb 19.747 -374.252
lclavicle 4.92986e-014 -9.36027e-014
lhumerus -767.304 24.8376 -659.502
lradius 15.6
lwrist -71.3729
lhand -5.76411 353.613
lfingers 7.12502
lthumb 20.0591 382.597
rfemur 389.897 20.031 388.202
rtibia 11.6998
rfoot -21.8661 -35.5779
rtoes 30.6007
lfemur 16.3346 -24.0428 -23.4742
ltibia 31.8453
lfoot -6.24257 27.1708
ltoes 11.2129
475
root 15.9488 1.33957 1.1119 -761.979 -85.4191 -432.519
lowerback 22.9823 -2.837 1.5182
upperback 7.86383 -4.01641 -0.808471
thorax -4.32725 -2.25585 -0.66331
lowerneck -6.93445 1.99486 -6.38983
upperneck -0.69197 3.04475 1.47644
head 0.836008 1.51302 1.633
rclavicle -2.8625e-014 -7.45443e-016
rhumerus -44.4543 -19.2128 -64.584
rradius 11.1121
rwrist 73.5504
rhand -6.0943 -345.245
rfingers 7.12502
rthumb 19.7417 -374.262
lclavicle -2.8625e-014 -7.45443e-016
lhumerus -767.259 24.6239 -659.314
lradius 15.6388
lwrist -71.2239
lhand -5.76152 353.701
lfingers 7.12502
lthumb 20.0616 382.686
rfemur 389.879 20.0335 388.19
rtibia 11.6412
rfoot -21.8157 -35.6549
rtoes 30.643
lfemur 16.2889 -24.0265 -23.4246
ltibia 31.8515
lfoot -6.34766 27.2231
ltoes 11.1182
476
root 15.9502 1.33892 1.11199 -762.017 -85.4231 -432.441
lowerback 22.9456 -2.83825 1.52988
upperback 7.86798 -4.01584 -0.811793
thorax -4.30528 -2.25523 -0.675726
lowerneck -7.03713 1.98146 -6.43966
upperneck -0.654617 3.03729 1.51899
head 0.864908 1.5094 1.65798
rclavicle 1.90833e-014 7.5886e-014
rhumerus -44.4354 -19.287 -64.5403
rradius 11.0978
rwrist 73.612
rhand -6.12029 -345.244
rfingers 7.12502
rthumb 19.7167 -374.264
lclavicle 1.90833e-014 7.5886e-014
lhumerus -767.2 24.5533 -659.21
lradius 15.6577
lwrist -71.2082
lhand -5.73378 353.772
lfingers 7.12502
lthumb 20.0883 382.753
rfemur 389.853 19.9657 388.116
rtibia 11.5828
rfoot -21.8203 -35.6016
rtoes 30.77
lfemur 16.2232 -23.9718 -23.3657
ltibia 31.8575
lfoot -6.36079 27.2591
ltoes 11.022
477
root 15.9508 1.33769 1.11238 -761.758 -85.4369 -432.652
lowerback 22.9174 -2.84715 1.5615
upperback 7.85791 -4.01952 -0.802444
thorax -4.30344 -2.25636 -0.683724
lowerneck -7.13502 1.96814 -6.46389
upperneck -0.601454 3.02844 1.53153
head 0.898742 1.50435 1.66883
rclavicle 3.97569e-014 -2.55687e-014
rhumerus -44.4122 -19.3382 -64.4981
rradius 11.081
rwrist 73.6708
rhand -6.09502 -345.263
rfingers 7.12502
rthumb 19.741 -374.281
lclavicle 3.97569e-014 -2.55687e-014
lhumerus -767.146 24.4697 -659.101
lradius 15.6475
lwrist -71.125
lhand -5.77595 353.831
lfingers 7.12502
lthumb 20.0477 382.817
rfemur 389.836 19.9514 388.102
rtibia 11.5105
rfoot -21.9635 -35.5781
rtoes 30.8937
lfemur 16.1411 -23.9206 -23.2721
ltibia 31.8709
lfoot -6.37935 27.2818
ltoes 10.9828
478
root 15.9525 1.33696 1.11262 -761.975 -85.4406 -432.381
lowerback 22.8827 -2.84854 1.56221
upperback 7.8384 -4.02033 -0.815766
thorax -4.30844 -2.25554 -0.699288
lowerneck -7.15448 1.96785 -6.48059
upperneck -0.610172 3.02997 1.56254
head 0.898754 1.50579 1.68214
rclavicle -9.54166e-015 -2.82274e-014
rhumerus -44.3995 -19.2813 -64.5446
rradius 11.0791
rwrist 73.6422
rhand -6.11592 -345.254
rfingers 7.12502
rthumb 19.7209 -374.274
lclavicle -9.54166e-015 -2.82274e-014
lhumerus -767.11 24.3225 -658.988
lradius 15.671
lwrist -71.0324
lhand -5.75492 353.87
lfingers 7.12502
lthumb 20.0679 382.854
rfemur 389.842 20.0152 388.091
rtibia 11.4208
rfoot -22.1854 -35.5905
rtoes 30.9776
lfemur 16.065 -23.8664 -23.2306
ltibia 31.8828
lfoot -6.45419 27.3018
ltoes 10.9246
479
root 15.9531 1.33512 1.11307 -761.759 -85.4568 -432.567
lowerback 22.8759 -2.85691 1.59159
upperback 7.83346 -4.02428 -0.806413
thorax -4.31153 -2.25723 -0.705009
lowerneck -7.25128 1.96176 -6.52624
upperneck -0.55843 3.03199 1.59936
head 0.931047 1.50661 1.70493
rclavicle -5.88403e-014 1.963e-015
rhumerus -44.3506 -19.2109 -64.5922
rradius 11.0714
rwrist 73.5253
rhand -6.09621 -345.272
rfingers 7.12502
rthumb 19.7399 -374.29
lclavicle -5.88403e-014 1.963e-015
lhumerus -767.066 24.2331 -658.881
lradius 15.6872
lwrist -70.9402
lhand -5.72359 353.861
lfingers 7.12502
lthumb 20.098 382.842
rfemur 389.837 19.9948 388.077
rtibia 11.3543
rfoot -22.338 -35.5836
rtoes 30.9839
lfemur 16.0082 -23.8327 -23.1536
ltibia 31.8947
lfoot -6.51484 27.317
ltoes 11.0151
